<mxfile host="app.diagrams.net" modified="2021-05-05T18:22:59.620Z" agent="5.0 (Windows NT 10.0; Win64; x64) AppleWebKit/537.36 (KHTML, like Gecko) Chrome/90.0.4430.93 Safari/537.36" etag="kXlevrbqCIigjR8mXpjl" version="14.6.10" type="github">
  <diagram id="C5RBs43oDa-KdzZeNtuy" name="Page-1">
    <mxGraphModel dx="358" dy="662" grid="1" gridSize="10" guides="1" tooltips="1" connect="1" arrows="1" fold="1" page="1" pageScale="1" pageWidth="827" pageHeight="1169" math="0" shadow="0">
      <root>
        <mxCell id="WIyWlLk6GJQsqaUBKTNV-0" />
        <mxCell id="WIyWlLk6GJQsqaUBKTNV-1" parent="WIyWlLk6GJQsqaUBKTNV-0" />
        <mxCell id="AcKMxwsW4eE3oVSHeb8z-140" style="edgeStyle=orthogonalEdgeStyle;rounded=0;orthogonalLoop=1;jettySize=auto;html=1;" edge="1" parent="WIyWlLk6GJQsqaUBKTNV-1" target="AcKMxwsW4eE3oVSHeb8z-139">
          <mxGeometry relative="1" as="geometry">
            <mxPoint x="1441.5" y="90" as="sourcePoint" />
          </mxGeometry>
        </mxCell>
        <mxCell id="AcKMxwsW4eE3oVSHeb8z-129" value="START" style="rounded=1;whiteSpace=wrap;html=1;fillColor=#dae8fc;strokeColor=#6c8ebf;" vertex="1" parent="WIyWlLk6GJQsqaUBKTNV-1">
          <mxGeometry x="1383" y="60" width="119" height="30" as="geometry" />
        </mxCell>
        <mxCell id="AcKMxwsW4eE3oVSHeb8z-133" style="edgeStyle=orthogonalEdgeStyle;rounded=0;orthogonalLoop=1;jettySize=auto;html=1;" edge="1" parent="WIyWlLk6GJQsqaUBKTNV-1" source="AcKMxwsW4eE3oVSHeb8z-130" target="AcKMxwsW4eE3oVSHeb8z-132">
          <mxGeometry relative="1" as="geometry" />
        </mxCell>
        <mxCell id="AcKMxwsW4eE3oVSHeb8z-130" value="ŞİKAYET OLUŞTURULMASI" style="rounded=1;whiteSpace=wrap;html=1;fillColor=#d5e8d4;strokeColor=#82b366;" vertex="1" parent="WIyWlLk6GJQsqaUBKTNV-1">
          <mxGeometry x="1380" y="200" width="120" height="50" as="geometry" />
        </mxCell>
        <mxCell id="AcKMxwsW4eE3oVSHeb8z-135" style="edgeStyle=orthogonalEdgeStyle;rounded=0;orthogonalLoop=1;jettySize=auto;html=1;entryX=0.5;entryY=0;entryDx=0;entryDy=0;" edge="1" parent="WIyWlLk6GJQsqaUBKTNV-1" source="AcKMxwsW4eE3oVSHeb8z-132" target="AcKMxwsW4eE3oVSHeb8z-134">
          <mxGeometry relative="1" as="geometry" />
        </mxCell>
        <mxCell id="AcKMxwsW4eE3oVSHeb8z-132" value="KALİTE DEPARTMANI" style="rounded=1;whiteSpace=wrap;html=1;fillColor=#fff2cc;strokeColor=#d6b656;" vertex="1" parent="WIyWlLk6GJQsqaUBKTNV-1">
          <mxGeometry x="1380" y="290" width="120" height="50" as="geometry" />
        </mxCell>
        <mxCell id="AcKMxwsW4eE3oVSHeb8z-147" style="edgeStyle=orthogonalEdgeStyle;rounded=0;orthogonalLoop=1;jettySize=auto;html=1;entryX=0.5;entryY=0;entryDx=0;entryDy=0;" edge="1" parent="WIyWlLk6GJQsqaUBKTNV-1" source="AcKMxwsW4eE3oVSHeb8z-134" target="AcKMxwsW4eE3oVSHeb8z-146">
          <mxGeometry relative="1" as="geometry">
            <mxPoint x="1439.9999999999998" y="580" as="targetPoint" />
          </mxGeometry>
        </mxCell>
        <mxCell id="AcKMxwsW4eE3oVSHeb8z-172" style="edgeStyle=orthogonalEdgeStyle;rounded=0;orthogonalLoop=1;jettySize=auto;html=1;exitX=1;exitY=0.5;exitDx=0;exitDy=0;entryX=1;entryY=0.5;entryDx=0;entryDy=0;" edge="1" parent="WIyWlLk6GJQsqaUBKTNV-1" source="AcKMxwsW4eE3oVSHeb8z-134" target="AcKMxwsW4eE3oVSHeb8z-139">
          <mxGeometry relative="1" as="geometry" />
        </mxCell>
        <mxCell id="AcKMxwsW4eE3oVSHeb8z-134" value="Kalite Onay" style="rhombus;whiteSpace=wrap;html=1;fillColor=#d0cee2;strokeColor=#56517e;" vertex="1" parent="WIyWlLk6GJQsqaUBKTNV-1">
          <mxGeometry x="1396" y="400" width="90" height="100" as="geometry" />
        </mxCell>
        <mxCell id="AcKMxwsW4eE3oVSHeb8z-138" value="RED" style="text;html=1;strokeColor=none;fillColor=none;align=center;verticalAlign=middle;whiteSpace=wrap;rounded=0;fontStyle=1" vertex="1" parent="WIyWlLk6GJQsqaUBKTNV-1">
          <mxGeometry x="1510" y="290" width="33" height="20" as="geometry" />
        </mxCell>
        <mxCell id="AcKMxwsW4eE3oVSHeb8z-141" style="edgeStyle=orthogonalEdgeStyle;rounded=0;orthogonalLoop=1;jettySize=auto;html=1;" edge="1" parent="WIyWlLk6GJQsqaUBKTNV-1" source="AcKMxwsW4eE3oVSHeb8z-139" target="AcKMxwsW4eE3oVSHeb8z-130">
          <mxGeometry relative="1" as="geometry" />
        </mxCell>
        <mxCell id="AcKMxwsW4eE3oVSHeb8z-139" value="ŞİKAYETİ OLUŞTURAN PERSONEL" style="rounded=1;whiteSpace=wrap;html=1;fillColor=#fff2cc;strokeColor=#d6b656;" vertex="1" parent="WIyWlLk6GJQsqaUBKTNV-1">
          <mxGeometry x="1381" y="120" width="120" height="50" as="geometry" />
        </mxCell>
        <mxCell id="AcKMxwsW4eE3oVSHeb8z-150" style="edgeStyle=orthogonalEdgeStyle;rounded=0;orthogonalLoop=1;jettySize=auto;html=1;entryX=0.5;entryY=0;entryDx=0;entryDy=0;" edge="1" parent="WIyWlLk6GJQsqaUBKTNV-1" source="AcKMxwsW4eE3oVSHeb8z-146" target="AcKMxwsW4eE3oVSHeb8z-149">
          <mxGeometry relative="1" as="geometry" />
        </mxCell>
        <mxCell id="AcKMxwsW4eE3oVSHeb8z-146" value="PERSONELE ATAMA YAPILIR" style="rounded=1;whiteSpace=wrap;html=1;fillColor=#d5e8d4;strokeColor=#82b366;" vertex="1" parent="WIyWlLk6GJQsqaUBKTNV-1">
          <mxGeometry x="1380" y="590" width="120" height="50" as="geometry" />
        </mxCell>
        <mxCell id="AcKMxwsW4eE3oVSHeb8z-153" style="edgeStyle=orthogonalEdgeStyle;rounded=0;orthogonalLoop=1;jettySize=auto;html=1;entryX=0.5;entryY=0;entryDx=0;entryDy=0;" edge="1" parent="WIyWlLk6GJQsqaUBKTNV-1" source="AcKMxwsW4eE3oVSHeb8z-149" target="AcKMxwsW4eE3oVSHeb8z-152">
          <mxGeometry relative="1" as="geometry" />
        </mxCell>
        <mxCell id="AcKMxwsW4eE3oVSHeb8z-149" value="İŞİ ÇÖZECEK PERSONEL" style="rounded=1;whiteSpace=wrap;html=1;fillColor=#fff2cc;strokeColor=#d6b656;" vertex="1" parent="WIyWlLk6GJQsqaUBKTNV-1">
          <mxGeometry x="1380" y="680" width="120" height="50" as="geometry" />
        </mxCell>
        <mxCell id="AcKMxwsW4eE3oVSHeb8z-166" style="edgeStyle=orthogonalEdgeStyle;rounded=0;orthogonalLoop=1;jettySize=auto;html=1;exitX=0.5;exitY=1;exitDx=0;exitDy=0;entryX=0.5;entryY=0;entryDx=0;entryDy=0;" edge="1" parent="WIyWlLk6GJQsqaUBKTNV-1" source="AcKMxwsW4eE3oVSHeb8z-152" target="AcKMxwsW4eE3oVSHeb8z-165">
          <mxGeometry relative="1" as="geometry" />
        </mxCell>
        <mxCell id="AcKMxwsW4eE3oVSHeb8z-173" style="edgeStyle=orthogonalEdgeStyle;rounded=0;orthogonalLoop=1;jettySize=auto;html=1;" edge="1" parent="WIyWlLk6GJQsqaUBKTNV-1" source="AcKMxwsW4eE3oVSHeb8z-152" target="AcKMxwsW4eE3oVSHeb8z-132">
          <mxGeometry relative="1" as="geometry">
            <mxPoint x="1341" y="380" as="targetPoint" />
            <Array as="points">
              <mxPoint x="1360" y="820" />
              <mxPoint x="1360" y="323" />
            </Array>
          </mxGeometry>
        </mxCell>
        <mxCell id="AcKMxwsW4eE3oVSHeb8z-152" value="PERSONEL ONAY" style="rhombus;whiteSpace=wrap;html=1;fillColor=#d0cee2;strokeColor=#56517e;" vertex="1" parent="WIyWlLk6GJQsqaUBKTNV-1">
          <mxGeometry x="1391" y="770" width="100" height="100" as="geometry" />
        </mxCell>
        <mxCell id="AcKMxwsW4eE3oVSHeb8z-156" value="RED" style="text;html=1;strokeColor=none;fillColor=none;align=center;verticalAlign=middle;whiteSpace=wrap;rounded=0;fontStyle=1" vertex="1" parent="WIyWlLk6GJQsqaUBKTNV-1">
          <mxGeometry x="1321" y="540" width="40" height="5" as="geometry" />
        </mxCell>
        <mxCell id="AcKMxwsW4eE3oVSHeb8z-157" value="ONAY" style="text;html=1;strokeColor=none;fillColor=none;align=center;verticalAlign=middle;whiteSpace=wrap;rounded=0;fontStyle=1" vertex="1" parent="WIyWlLk6GJQsqaUBKTNV-1">
          <mxGeometry x="1445" y="550" width="40" height="10" as="geometry" />
        </mxCell>
        <mxCell id="AcKMxwsW4eE3oVSHeb8z-162" value="ONAY" style="text;html=1;strokeColor=none;fillColor=none;align=center;verticalAlign=middle;whiteSpace=wrap;rounded=0;fontStyle=1" vertex="1" parent="WIyWlLk6GJQsqaUBKTNV-1">
          <mxGeometry x="1405" y="890" width="40" height="10" as="geometry" />
        </mxCell>
        <mxCell id="AcKMxwsW4eE3oVSHeb8z-171" style="edgeStyle=orthogonalEdgeStyle;rounded=0;orthogonalLoop=1;jettySize=auto;html=1;exitX=0.5;exitY=1;exitDx=0;exitDy=0;entryX=0.5;entryY=0;entryDx=0;entryDy=0;" edge="1" parent="WIyWlLk6GJQsqaUBKTNV-1" source="AcKMxwsW4eE3oVSHeb8z-165" target="AcKMxwsW4eE3oVSHeb8z-168">
          <mxGeometry relative="1" as="geometry" />
        </mxCell>
        <mxCell id="AcKMxwsW4eE3oVSHeb8z-165" value="PERSONEL AMİRİ ONAYINA DÜŞER" style="rounded=1;whiteSpace=wrap;html=1;fillColor=#fff2cc;strokeColor=#d6b656;" vertex="1" parent="WIyWlLk6GJQsqaUBKTNV-1">
          <mxGeometry x="1382" y="930" width="120" height="50" as="geometry" />
        </mxCell>
        <mxCell id="AcKMxwsW4eE3oVSHeb8z-167" style="edgeStyle=orthogonalEdgeStyle;rounded=0;orthogonalLoop=1;jettySize=auto;html=1;entryX=1;entryY=0.25;entryDx=0;entryDy=0;" edge="1" parent="WIyWlLk6GJQsqaUBKTNV-1" source="AcKMxwsW4eE3oVSHeb8z-168" target="AcKMxwsW4eE3oVSHeb8z-149">
          <mxGeometry relative="1" as="geometry">
            <mxPoint x="1571" y="1057.5" as="targetPoint" />
            <Array as="points">
              <mxPoint x="1520" y="1060" />
              <mxPoint x="1520" y="693" />
            </Array>
          </mxGeometry>
        </mxCell>
        <mxCell id="AcKMxwsW4eE3oVSHeb8z-176" style="edgeStyle=orthogonalEdgeStyle;rounded=0;orthogonalLoop=1;jettySize=auto;html=1;" edge="1" parent="WIyWlLk6GJQsqaUBKTNV-1" source="AcKMxwsW4eE3oVSHeb8z-168">
          <mxGeometry relative="1" as="geometry">
            <mxPoint x="1271" y="1060" as="targetPoint" />
          </mxGeometry>
        </mxCell>
        <mxCell id="AcKMxwsW4eE3oVSHeb8z-168" value="PERSONEL AMİRİ ONAY" style="rhombus;whiteSpace=wrap;html=1;fillColor=#d0cee2;strokeColor=#56517e;" vertex="1" parent="WIyWlLk6GJQsqaUBKTNV-1">
          <mxGeometry x="1391" y="1010" width="100" height="100" as="geometry" />
        </mxCell>
        <mxCell id="AcKMxwsW4eE3oVSHeb8z-170" value="RED" style="text;html=1;strokeColor=none;fillColor=none;align=center;verticalAlign=middle;whiteSpace=wrap;rounded=0;fontStyle=1" vertex="1" parent="WIyWlLk6GJQsqaUBKTNV-1">
          <mxGeometry x="1520" y="830" width="40" height="5" as="geometry" />
        </mxCell>
        <mxCell id="AcKMxwsW4eE3oVSHeb8z-180" style="edgeStyle=orthogonalEdgeStyle;rounded=0;orthogonalLoop=1;jettySize=auto;html=1;entryX=0.5;entryY=1;entryDx=0;entryDy=0;" edge="1" parent="WIyWlLk6GJQsqaUBKTNV-1" source="AcKMxwsW4eE3oVSHeb8z-175" target="AcKMxwsW4eE3oVSHeb8z-179">
          <mxGeometry relative="1" as="geometry" />
        </mxCell>
        <mxCell id="AcKMxwsW4eE3oVSHeb8z-175" value="KALİTE DEPARTMANI DEGERLENDİRME" style="rounded=1;whiteSpace=wrap;html=1;fillColor=#fff2cc;strokeColor=#d6b656;" vertex="1" parent="WIyWlLk6GJQsqaUBKTNV-1">
          <mxGeometry x="1141" y="1035" width="120" height="50" as="geometry" />
        </mxCell>
        <mxCell id="AcKMxwsW4eE3oVSHeb8z-177" value="ONAY" style="text;html=1;strokeColor=none;fillColor=none;align=center;verticalAlign=middle;whiteSpace=wrap;rounded=0;fontStyle=1" vertex="1" parent="WIyWlLk6GJQsqaUBKTNV-1">
          <mxGeometry x="1311" y="1050" width="40" height="10" as="geometry" />
        </mxCell>
        <mxCell id="AcKMxwsW4eE3oVSHeb8z-182" style="edgeStyle=orthogonalEdgeStyle;rounded=0;orthogonalLoop=1;jettySize=auto;html=1;entryX=0.5;entryY=1;entryDx=0;entryDy=0;" edge="1" parent="WIyWlLk6GJQsqaUBKTNV-1" source="AcKMxwsW4eE3oVSHeb8z-179" target="AcKMxwsW4eE3oVSHeb8z-181">
          <mxGeometry relative="1" as="geometry" />
        </mxCell>
        <mxCell id="AcKMxwsW4eE3oVSHeb8z-179" value="MÜŞTERİYLE GÖRÜŞECEK PERSONELE ATAMA YAPAR" style="rounded=1;whiteSpace=wrap;html=1;fillColor=#d5e8d4;strokeColor=#82b366;" vertex="1" parent="WIyWlLk6GJQsqaUBKTNV-1">
          <mxGeometry x="1141" y="940" width="120" height="60" as="geometry" />
        </mxCell>
        <mxCell id="AcKMxwsW4eE3oVSHeb8z-184" style="edgeStyle=orthogonalEdgeStyle;rounded=0;orthogonalLoop=1;jettySize=auto;html=1;entryX=0.5;entryY=1;entryDx=0;entryDy=0;" edge="1" parent="WIyWlLk6GJQsqaUBKTNV-1" source="AcKMxwsW4eE3oVSHeb8z-181" target="AcKMxwsW4eE3oVSHeb8z-183">
          <mxGeometry relative="1" as="geometry" />
        </mxCell>
        <mxCell id="AcKMxwsW4eE3oVSHeb8z-181" value="PERSONEL ONAYINA DÜŞER" style="rounded=1;whiteSpace=wrap;html=1;fillColor=#fff2cc;strokeColor=#d6b656;" vertex="1" parent="WIyWlLk6GJQsqaUBKTNV-1">
          <mxGeometry x="1141" y="845" width="120" height="50" as="geometry" />
        </mxCell>
        <mxCell id="AcKMxwsW4eE3oVSHeb8z-186" style="edgeStyle=orthogonalEdgeStyle;rounded=0;orthogonalLoop=1;jettySize=auto;html=1;" edge="1" parent="WIyWlLk6GJQsqaUBKTNV-1" source="AcKMxwsW4eE3oVSHeb8z-183" target="AcKMxwsW4eE3oVSHeb8z-185">
          <mxGeometry relative="1" as="geometry" />
        </mxCell>
        <mxCell id="AcKMxwsW4eE3oVSHeb8z-183" value="PERSONEL MÜŞTERİYLE GÖRÜŞME NOTLARIN YAZAR" style="rounded=1;whiteSpace=wrap;html=1;fillColor=#d5e8d4;strokeColor=#82b366;" vertex="1" parent="WIyWlLk6GJQsqaUBKTNV-1">
          <mxGeometry x="1141" y="740" width="120" height="60" as="geometry" />
        </mxCell>
        <mxCell id="AcKMxwsW4eE3oVSHeb8z-188" style="edgeStyle=orthogonalEdgeStyle;rounded=0;orthogonalLoop=1;jettySize=auto;html=1;" edge="1" parent="WIyWlLk6GJQsqaUBKTNV-1" source="AcKMxwsW4eE3oVSHeb8z-185" target="AcKMxwsW4eE3oVSHeb8z-187">
          <mxGeometry relative="1" as="geometry" />
        </mxCell>
        <mxCell id="AcKMxwsW4eE3oVSHeb8z-185" value="KALİTE DEPARTMANI ONAYINA DÜŞER" style="rounded=1;whiteSpace=wrap;html=1;fillColor=#fff2cc;strokeColor=#d6b656;" vertex="1" parent="WIyWlLk6GJQsqaUBKTNV-1">
          <mxGeometry x="1141" y="630" width="120" height="50" as="geometry" />
        </mxCell>
        <mxCell id="AcKMxwsW4eE3oVSHeb8z-190" style="edgeStyle=orthogonalEdgeStyle;rounded=0;orthogonalLoop=1;jettySize=auto;html=1;" edge="1" parent="WIyWlLk6GJQsqaUBKTNV-1" source="AcKMxwsW4eE3oVSHeb8z-187">
          <mxGeometry relative="1" as="geometry">
            <mxPoint x="1201" y="500" as="targetPoint" />
          </mxGeometry>
        </mxCell>
        <mxCell id="AcKMxwsW4eE3oVSHeb8z-187" value="KALİTE ONAYLAR&amp;nbsp;" style="rounded=1;whiteSpace=wrap;html=1;fillColor=#d5e8d4;strokeColor=#82b366;" vertex="1" parent="WIyWlLk6GJQsqaUBKTNV-1">
          <mxGeometry x="1141" y="540" width="120" height="60" as="geometry" />
        </mxCell>
        <mxCell id="AcKMxwsW4eE3oVSHeb8z-192" style="edgeStyle=orthogonalEdgeStyle;rounded=0;orthogonalLoop=1;jettySize=auto;html=1;entryX=-0.007;entryY=0.36;entryDx=0;entryDy=0;entryPerimeter=0;" edge="1" parent="WIyWlLk6GJQsqaUBKTNV-1" source="AcKMxwsW4eE3oVSHeb8z-191" target="AcKMxwsW4eE3oVSHeb8z-139">
          <mxGeometry relative="1" as="geometry">
            <Array as="points">
              <mxPoint x="1201" y="138" />
            </Array>
          </mxGeometry>
        </mxCell>
        <mxCell id="AcKMxwsW4eE3oVSHeb8z-195" style="edgeStyle=orthogonalEdgeStyle;rounded=0;orthogonalLoop=1;jettySize=auto;html=1;exitX=0;exitY=0.5;exitDx=0;exitDy=0;entryX=1;entryY=0.5;entryDx=0;entryDy=0;" edge="1" parent="WIyWlLk6GJQsqaUBKTNV-1" source="AcKMxwsW4eE3oVSHeb8z-191" target="AcKMxwsW4eE3oVSHeb8z-197">
          <mxGeometry relative="1" as="geometry">
            <mxPoint x="1100" y="389.66666666666674" as="targetPoint" />
          </mxGeometry>
        </mxCell>
        <mxCell id="AcKMxwsW4eE3oVSHeb8z-191" value="Kalite Onay" style="rhombus;whiteSpace=wrap;html=1;fillColor=#d0cee2;strokeColor=#56517e;" vertex="1" parent="WIyWlLk6GJQsqaUBKTNV-1">
          <mxGeometry x="1156" y="400" width="90" height="100" as="geometry" />
        </mxCell>
        <mxCell id="AcKMxwsW4eE3oVSHeb8z-193" value="RED" style="text;html=1;strokeColor=none;fillColor=none;align=center;verticalAlign=middle;whiteSpace=wrap;rounded=0;fontStyle=1" vertex="1" parent="WIyWlLk6GJQsqaUBKTNV-1">
          <mxGeometry x="1156" y="300" width="40" height="5" as="geometry" />
        </mxCell>
        <mxCell id="AcKMxwsW4eE3oVSHeb8z-196" value="ONAY" style="text;html=1;strokeColor=none;fillColor=none;align=center;verticalAlign=middle;whiteSpace=wrap;rounded=0;fontStyle=1" vertex="1" parent="WIyWlLk6GJQsqaUBKTNV-1">
          <mxGeometry x="1101" y="430" width="40" height="10" as="geometry" />
        </mxCell>
        <mxCell id="AcKMxwsW4eE3oVSHeb8z-197" value="ŞİKAYET KAPANIR" style="rounded=1;whiteSpace=wrap;html=1;fillColor=#eeeeee;strokeColor=#36393d;" vertex="1" parent="WIyWlLk6GJQsqaUBKTNV-1">
          <mxGeometry x="970" y="420" width="120" height="60" as="geometry" />
        </mxCell>
      </root>
    </mxGraphModel>
  </diagram>
</mxfile>
